<svg width="47" height="47" viewBox="0 0 47 47" fill="none" xmlns="http://www.w3.org/2000/svg">
<path d="M36.7 41.1C36.7 37.5991 35.3093 34.2417 32.8338 31.7662C30.3583 29.2907 27.0009 27.9 23.5 27.9M23.5 27.9C19.9991 27.9 16.6417 29.2907 14.1662 31.7662C11.6907 34.2417 10.3 37.5991 10.3 41.1M23.5 27.9C28.3601 27.9 32.3 23.9601 32.3 19.1C32.3 14.2399 28.3601 10.3 23.5 10.3C18.6399 10.3 14.7 14.2399 14.7 19.1C14.7 23.9601 18.6399 27.9 23.5 27.9ZM45.5 23.5C45.5 35.6503 35.6503 45.5 23.5 45.5C11.3497 45.5 1.5 35.6503 1.5 23.5C1.5 11.3497 11.3497 1.5 23.5 1.5C35.6503 1.5 45.5 11.3497 45.5 23.5Z" stroke="white" stroke-width="3" stroke-linecap="round" stroke-linejoin="round"/>
</svg>
